/* XPM */
static char *f8ed58d470da4603e4710ec66f420866vKkgjNd9Yd9JPFdi[] = {
/* columns rows colors chars-per-pixel */
"64 64 72 1 ",
"  c #F4DF8A",
". c #F5E086",
"X c #F4E08E",
"o c #F4E093",
"O c #F5E39A",
"+ c #D2DCB7",
"@ c #D4DEBA",
"# c #D8DFBF",
"$ c #D7E0BF",
"% c #D8E0BE",
"& c #F4E3A4",
"* c #F6E6AD",
"= c #F4E6B4",
"- c #F7E8B3",
"; c #F6E7B9",
": c #F6E9BB",
"> c #D7DFC0",
", c #D9DFC1",
"< c #DBE1C4",
"1 c #DEE3C9",
"2 c #E1E4CD",
"3 c #F5E9C4",
"4 c #F8EBC0",
"5 c #F6EBCA",
"6 c #F8EDCE",
"7 c #E5E6D2",
"8 c #E9E7D7",
"9 c #E7E8D4",
"0 c #E8E9D6",
"q c #EBEBDB",
"w c #ECEADC",
"e c #ECE9DE",
"r c #ECECDC",
"t c #EEEDDC",
"y c #EFEDDE",
"u c #EFEDDF",
"i c #EDEEDE",
"p c #F7EED1",
"a c #F7EFD4",
"s c #F8EED4",
"d c #F8EFD7",
"f c #F7EED9",
"g c #F0ECDF",
"h c #F9F0DB",
"j c #F9F1DC",
"k c #EFEDE0",
"l c #EFECE1",
"z c #F0EFE1",
"x c #F0EDE3",
"c c #F1EEE3",
"v c #F2EEE3",
"b c #F2EEE5",
"n c #F7F0E3",
"m c #F3F1E4",
"M c #F4F2E6",
"N c #F6F2E7",
"B c #F9F1E2",
"V c #F9F2E3",
"C c #FAF3E7",
"Z c #F4F0E8",
"A c #F5F2E9",
"S c #F6F2E9",
"D c #F5F1EA",
"F c #F7F3ED",
"G c #F8F3E8",
"H c #F8F3EB",
"J c #F8F3EE",
"K c #F9F3EF",
"L c #F8F4EC",
"P c #F9F4EC",
"I c #F8F4ED",
"U c #FAF4EF",
/* pixels */
"@@@@@@@@@@$+$$+$+$+$+$$++$++@@@@@@@@@@@@++$$+$++%$+$@@@@@@@@@@%9",
"@@@@@@@$@@+$+$++$+$+$++$$++$@@@%@@@@@@@@$$++++%+++$+@@@@@@@@@@@%",
"@@@@@@@@@@@+$+$+@#@@++$++%$+@@@@@@@@@@@@$+%+%++%+$++@@@@@@@@@@@@",
"@@@@@@@@@@@$+$+$@@@@$++$++%+@@@@@@@@@@@@+$+$+%%+++$%@@@@@@@@@@@@",
"$@@+@@@@+%$++%++@#@@@@@@%+@@@@@@@@@@@@@@$+$++%++$+@@@@@@@@@@@@@@",
"m2@+@@@@$++$%++%@@@@@@@@@@@@@@@@@@@@@@@@+$+$++%$%+@@@@@@@@@@@@@@",
"HS2,802#++$++$%+@@@@@@@@@+@@@@@@@@@@@@@@$+$+%+$++%++@@@@@@@@@@@@",
"FJcbFJL<+@+$++%+@@@@@@@@@%@@$@@@@@@@@@@@+$+$+%+$%++%@@@@@@@@@@@@",
"aaCLLSm%%+@@@@@@@@@@@@@@+$$@+$@@@@@@@@@@@@@@++$++$+$$+$$@@@@@@@@",
"XX;HLm<%@@@@%@@@@@@@@@@+$++@$+@@@@@@@@@@@@@@$$+$$$+$+++$@@@@@@@@",
"oo=HLm9%@%+@@@@@@@@@@#181$+@++@@@@@@@@@@@@@@+++$+$$<191$@@@@@@@@",
"f6MLLLHi%+@@@@@@@@@@@7SFLi<$$$#@@@@@@@@@%@@@+$%<++1LLLM1@@@@@@@@",
"FJJcMLLH%@@@@@@@@@++#wJHLF02bml<@@@@@@@@@@@@@2MMi9iLLLL1@@@@@@@@",
"JJM<19i2@@@@@@@@@@@@+2HHLSHJFFJ2@@@@@@@@@@@@$gLLMLMMLLL<+@@%@@@@",
"FC0@@@@@%@@@@@@@+#@18wSB:-sHFFq#@@@@@@@@@@@@@zLLLj*&aLM09@%@@@@@",
"i7#@@@@@@@@@@@@@@@1SJJJs  &nLm<@@@@@@@@@@@@@@%rML:..-LLLLa%@@@@@",
"@@@@@@@@$+$+$++$++1HCLLB-&:LLLm7$@+@@@@@+$+$#<iMLh*-fJJHJc<+@+%+",
"@@@@@@@@+$+$$+$+$+%<mMLLHHHHLLLL<@@@@+%@$+$+$iHLLULLHFq92#+@@@$@",
"@@@@@@@@+++$++%+++$$$%1LLLH9zLMM<$@@@@@@+@++<FMMLlmLJH8+++@@+$++",
"@@@@@@@@$+$$%++%$++++$1LHHM$$12<%@@@@@@@+$$+$9a91<0LSFq@@@@@$$+%",
"+%$+@+$+$+$+@@@@$++$$+<iLH9%%+$++@+$+@@@+$+$@@@@+@<iMm1@+%+++%+$",
"%+++@%+$+$+$@@@@++$++$$<2%%+@+++@@$+%@@@$+$+@@@@@@@@<<@@++%$%+++",
"+++$+$$+@@@@@@@@$++$+++++@%+@@+$@@@@@@@@%++$@@@@@@@@@@@@%+%+$+$+",
"+%$+$+$$@@@@@@@@+$$+$$$+@@+@@@$+@@@@@@@@+%++@@@@@@@@@@@@+%+++%++",
"%++$@@@@@@@@@@+@++%+@@@@@@@@$+$+@@@%@@@@@@%@@@@@@@@@@@@@%++%%291",
"+%++@@@@@@@@#<<#$+%+@@@@@@@@+++$@@@@@@@@@+@@@@@@@%@@@@@@$+$%iLLL",
"+$$+@@@@@@@%9SHM1$+$@@@@@@@@+%%+@@@@@@@@+%$+@@@@@@@@@@@@+++%LLLL",
"++%+@@@@@@@%SLHHm<19q1@@@@@@%++%@@@@@@@@%++$@@@@@@@@@@@@+$$$qLLL",
"%@@@@@@@@@%%cHLLLMSFLm$+@@$+$+++@@@@@@@@+$++$++$@@%+@@@++<70iHa*",
"@@@@@@+@@@<1iHj5pLLLLq#@@@$++$$+@@@@@@@@$+$++$++@@+%@@@@@wLJJC*.",
"@@@@@@@@$2BLLH-Xo5LLq#@@@$+$+$+$@@@@@@@@%++%+%+$+$$+@@#+,wLHJLa&",
"@@@@@@@@+iLLLM:oo5LLc7#@@+$+$+$+@@@@@@@@+%++%+$+$$+$@@@@@,qcMJJC",
"$+$$+$$+$1zLLLHjjLLHLCt%@@@@@@@@@@@@@@@@@@@@@@@@@+$++%+++$+%%tHH",
"+$++$++$++<11zHLLmmHLHi@@@@@@@@@@@@@@@@@@@@@@@@@@$+$%+%+++$+%iLL",
"+$+$+$$+$+++$iLLLi$190%@@@@@@@@@@@@@@@@@@@@@@@@@$+$+%+%+$+++$2LL",
"$++$+++$$+$+$9HBL1++$$+@@@@@@@@@@@@@@@@@@@@@@@@+$+$$+%+++$$+$$<2",
"2%$%$$+++$+$@@9t1++$@@@@@@@@@@@@@@@@@@@@@@@@@@@@++$$+$+$$++$+$++",
"M2%%<$+$$+++@@@@$$$+@@@@@@@@@%@@@@@@@@@@@@@@#0q0$$++$+$+++$+$+++",
"LztMMm%$++$+@@@@$++$@@@@@@@@@@@@@@@@@@@@@++#qHJJt$+$+$++$++$+$$+",
"aLLMMM9+$$+$@@@@+$++@@@@@@@@@@@+@@@@@@@@#+##cJJJM1$++$+$%+$+$$++",
"opJHJM2+@@@@@@@@$+$+$++$%+%++$+%@@@@@@@$9zzibLJJL9ti1$@++%++$++$",
"-nLc02@+@@@@@@@@$++$+$$++++%$+%+@@$@@@@<CFLLB:*6HHHHM%@@++$++$++",
"LFFq#@@@@@@@@@@@+$++$++$+%$+++$$@@@@@@@$mLLL6X.&MHLHi%@@%+%$$++$",
"LLFH2@@@@@@@@@@@$++$++$+$++$+$++@@@@@@@@1zmLj*&3HHi2$$@@+%+++$++",
"9nHM2@@@@@@@@@@@@@@@%@@@+$++$+#@@@@@@$@@$$rFFSMHLLt$+@@@@@@@$%++",
"@<1<@@@@@@@@@@@@@@@@+@@@$+$++$+@@@@@@@$@@1SLFFbSLLF7@@@@@@@@+++$",
"@@@+@@@@@@@@@@@@@@%@@%@++$+$$+@@@@@@@@@@@7FFFl<0HLF0@@@@@@@@$++$",
"@@@+@@@@@%@@@@+@@@++%121$$++$$@@%@@@@@@@+<qi7<+@299<+@@@%@%++$++",
"@@@@+$++%+$+++$<qq<#8MJHq#+@@@@@@@@@@@@@@@+%$+++$++$+$+$+$+%+++%",
"@@@@$+$++%+$+$2HJJHwHHDHH#@@#@@@@@@@@@@@@@+@++$++$+$$+$+$+%++%++",
"@@@@$++$+$++$+0HHHJHvHHJw@@@@@@@@@@@@@@@@@@@%++$+$+$+$$+++$$+++%",
"@@@@+$++$+$+++$iJJ6&O5HH7,@@@@@@@@@@@@@@@@@@+%$+$+$+$$+$+$++%%++",
"@@@@$@+$+$+$+$<tFL; X:LLHH2@@@@@@@@@@@@@@@@@%++$+$$++$$++$$+++++",
"@@@@+#$+$+$+$1LHLLj35BLHJJc#@@@@@@@@@@@@@@@@++$+$+$++++$+++$+%$+",
"@@@@$+$$++$+<mLLLmSLLLMicq2@@@@@@@@@@@@@@@@@+%%++++$191$$$%%+$++",
"@@@@+$$++$++$9ziq7iLLL9$@@@@@@@@@@@@%@@@@@@@%++$$+$0MCLq%%iu0$+$",
"@@+$@+@@$+$++$$%@+2HHH9$@@@@@@@@@@@@@@@@@$+$+$$+@+,SJJLJiMLFH<+@",
"@+%+@%@@+$++%+++@@$iMm<+@@@@@@@@@@@@@@@@@@$+$++$++#8HHHBMLLFm@++",
"@%+$@@+@$$+$$++$@@@@%%++@@@@@@@@@@@@@@@@@@@@+$++@##2cH:O&aLL8##+",
"@@@@@@$+++$+++$+@@@@%$+%@@@@@@@@@@@@@@@@@@@@$+$+#,cHHH* X3LFmb0#",
"@@@@+$+$@@@@$+%+@@@@@@@@@@@@@@@@@@@@@@$@@@@$@@@@+8JJJHh33BLLFJF7",
"+@+@$$+++@%@+$@@@@@@@@@@@@@@@@@@@@@@@@@@@@@@@@@+#<lHHMSJLLSgMSm2",
"1$@<9i2$+@@@@@@@@@@@@@@@@@@@@@@@@@@@@@@@@@@@@@@@@@#122qJJJi#<1%@",
"L91nLLC9+@@@+@@+@+@@@@+@@@@@@@@@@@@@@@@@+@@+@@@@+@@@+#0HJJ0@+@+@"
};
