/* XPM */
static char *_8171454501f444abc612f72414ef478ae4UTmGEFOvu0oYu[] = {
/* columns rows colors chars-per-pixel */
"64 64 66 1 ",
"  c #F8EB57",
". c #F7EC5E",
"X c #F8EB5C",
"o c #F7EC63",
"O c #F8EC63",
"+ c #F7EC68",
"@ c #F8ED6C",
"# c #F7EE73",
"$ c #F8ED71",
"% c #F7EE7B",
"& c #F8EE7B",
"* c #F7EF86",
"= c #F8EF85",
"- c #F8EF88",
"; c #F7F191",
": c #F8F194",
"> c #F8F29D",
", c #F9F3A3",
"< c #F9F4AB",
"1 c #FAF4B3",
"2 c #FAF6BA",
"3 c #FAF6C2",
"4 c #FAF7CB",
"5 c #FBF8CB",
"6 c #FAF8D2",
"7 c #FBF9DB",
"8 c #DBE7F5",
"9 c #DCE8F6",
"0 c #FBFAE4",
"q c #FBFBEB",
"w c #E3ECF7",
"e c #E8EFF7",
"r c #E5EEF8",
"t c #E8EFF8",
"y c #E9F0F7",
"u c #EDF3F7",
"i c #E7F0F8",
"p c #E9F1F9",
"a c #EAF2F8",
"s c #ECF3F9",
"d c #EDF3F9",
"f c #EDF3FA",
"g c #EFF5FA",
"h c #FBFBF1",
"j c #FCFBF0",
"k c #FCFCF0",
"l c #FCFCF3",
"z c #FBFCF6",
"x c #FCFCF4",
"c c #FCFCF7",
"v c #F0F4F9",
"b c #F1F6FA",
"n c #F3F7FB",
"m c #F4F7FB",
"M c #F3F8FB",
"N c #F5F9FA",
"B c #F5F8FC",
"V c #F7F9FC",
"C c #F6F8FD",
"Z c #F8FAFA",
"A c #FAFCFB",
"S c #FDFDFA",
"D c #F8FBFD",
"F c #FBFBFC",
"G c #FBFCFC",
"H c #FEFEFD",
/* pixels */
"89bbwdHb99999999999999999999999999999999GGw9wi999999999999998wVS",
"89mHmNHmdDb9999999999999999999999999iawrGHgaVHr89999989999998tNb",
"wrdGq44hHHy8999999999999999999999999VHGVGHGHHM988999999999999999",
"DHHc>..<Smtw9999999999999999999999889MHG3:,0GMnaw999999999999999",
"waNz>Xo1SHHDw8899999999999999999999inVG6o. ,HHHGr899899999999989",
"9aHHh66SDdrw88899999999999999999999VHHH0%.o2HVai9889999999999999",
"9bDdNHVVHm98899899999999999999999899waVGq67GHHf98999999999999999",
"9w99MHawdd989888999899999999999999999fHHVHHnnGGr8999999999999999",
"8888ra9888899999999999999999999999989nVawGHn9ww98999999999999999",
"89998889889999999999999999999999999899999rVw88888999999999999999",
"9999889999999999999988999999999999999889889988999999999899999999",
"9998889999999999888898989999999999999999888999999999999999989999",
"99999999999999889w98dd889899999999999999999999999999999999999899",
"99999999999999988dGdGDrda889999999999999999999999999999999998889",
"9999999999999989idG06qDHw98999999999999999998999999999999988w988",
"999999899999989eGGk&.;zVa98999999999999999999999989999998889gnr9",
"9999999999999989wnz>#<SDDr88889999999989999999999999999999w9mHVn",
"9999999999999988dDDDjHHd998888999999999999999999999999998dDVNS00",
"8998999999999999wwwDDabd988999999999999999999999999999999wbFS1@@",
"9888999999999999998tr9989989999999999998899999999999999999dDS: .",
"wad998999999999988888888989999999999888889999999999999989dHVN021",
"DHV888999999999989888998999999999999998ra9899999998899988wrwmSDF",
"HNa88899999999999999999999999999988rbtrDHr8w889989989999988wHSed",
"0HFDa889999999999999999999999999888rHHVHFdbSe899999999999988rr99",
"jDndw9999899999998999999999999999wraNS627SHbw8999999999999988888",
"HHd889899999999999999989999999988aHHH6+ #7Dbt8889999999899999999",
"dDD9889999999999999999999999999889wdD7&.*qHHDa988899999999999999",
"9ww9899999999999999999999999999988wDHH07qHnrw8999999999999999999",
"8999999999999999999999999999999998rDgdHHbHHr88999999999999999899",
"9889889899999999999999999999999998898rDV9rdw89999999999999999999",
"99989999999899888899999999999999998888rr888889999999999999999999",
"9998999999999998998989998999999999998888888899999899999999999989",
"8999889999989w98dm9889899999999999999988999999999999999999999888",
"999989999999wDDaHDraa99999999999999999999999999999999999999989rw",
"999989999989wdHq0jGHd9999999999999999999999999899999999998999rDD",
"99999999989nHDq-+;jDa9989999999989999999999899999999999988aGndHH",
"99999999999wdDq%.=qHDm889999999999999999999999999999999889wNHS00",
"999999989988dGHq6qHbr988999999999999999999999999999999899rbVH2@@",
"999999999989dgtDHbDD999999999999999999999998999999999989wbHVS>  ",
"99999999999898wVb9wr99999999999999999999998899999999999999wdHq11",
"999999999999888w888889999999999999999998889988889999999999wDHmHH",
"989999999999998999998999999999999999889t9wbr88899999999999wderDH",
"99999999999999999999999999999999999998rFbbHdrr9899999999998888ub",
"8999998999989998999999999989999999998raSc70zHN989999999999988888",
"8899999999999999999998999999999999989DHD<.#0Va989999999999999988",
"w989999999999899999999999999899999998wmD1$-0DSd89999999999999998",
"Gn99999999999999999989999999999999989dSmSqhGdrw89999999999998999",
"dw989999999999999988899999999999999899wwHVaVm9889999999999999999",
"w998999999999999999999999999999989999889di8w99999999999999999999",
"f899999999989999999999999999999999999998898888999999999999998999",
"9989899999988899999999999999999999999999889999999999999999889999",
"9899999898899888889999999999998999999999889999999999989898888889",
"99999989988dV99r989999999999999999999999899999999999998898rr9998",
"99999989abrVHfVGr889999999999999999989999999999999999988r8bSrda8",
"99999898aGHq7qHMw88899999998999998999999999999999999988rDNDSNHb8",
"9999998waNS:.%0GSN9899999999999998889999899999999999989wNz1*<SVm",
"9999899dHGz:O%0Sbr9899999998999999w9998898899999999988rHHj* %qVn",
"99998989wdHj7qVHd9888999998998899iDb99ww998999999999889rdF047HVw",
"999998989DDdHDrbu9899999999989at9bHDrbDm9888999999999889VGdHDaVr",
"999998989rw9bN999889999999999rHHDVHHDHHd8888999999999988ww9Nd999",
"999999998889999989999999999899yDSq1,5SNddr989999999899988889w888",
"99999999999898999999999999899ybDS>X +7HHHDw899999999999999988888",
"9999999999999999999999999988aHHHS<O.$0Fma98999999999999999999999",
"99999999999999999999999999899yedHS420HHNw89999999999999999999999"
};
