/* XPM */
static char *_ec73ed961a94778ff37b74ab6399e51lEsdP0dTOiQOexyy[] = {
/* columns rows colors chars-per-pixel */
"64 64 67 1 ",
"  c #FCF657",
". c #FCF55B",
"X c #FBF66A",
"o c #FCF775",
"O c #FCF77D",
"+ c #FCF783",
"@ c #FCF883",
"# c #FCF88A",
"$ c #FCF894",
"% c #FCF99C",
"& c #FCF9A4",
"* c #FDFAAE",
"= c #FDFBBA",
"- c #FDFBC4",
"; c #FCFBCE",
": c #FCFBD4",
"> c #FDFCDA",
", c #CFC4E6",
"< c #D1C6E7",
"1 c #D2C8E7",
"2 c #D1C6E8",
"3 c #D5CBE9",
"4 c #D8CFEA",
"5 c #DCD3EC",
"6 c #DFD8EE",
"7 c #E1DAEF",
"8 c #E4DDF0",
"9 c #FDFDE4",
"0 c #F8F7ED",
"q c #FCFBEC",
"w c #E6E1F2",
"e c #E8E3F2",
"r c #E9E5F3",
"t c #EAE4F3",
"y c #EAE5F6",
"u c #ECE6F4",
"i c #ECE6F5",
"p c #EEEAF5",
"a c #EEEAF6",
"s c #EFEBF6",
"d c #F0ECF7",
"f c #F1EEF7",
"g c #F3EFF7",
"h c #F3EFF8",
"j c #F6F5F5",
"k c #FCFCF3",
"l c #FBFAF4",
"z c #F9F9F7",
"x c #FCFBF6",
"c c #FDFCF4",
"v c #F3F0F8",
"b c #F4F2F8",
"n c #F5F2F9",
"m c #F4F1FA",
"M c #F7F5F8",
"N c #F7F6F9",
"B c #F7F4FA",
"V c #F8F6FA",
"C c #F9F7FA",
"Z c #F9F7FC",
"A c #FBFAF9",
"S c #FBF9FB",
"D c #FBFBFB",
"F c #FDFDF9",
"G c #FBFAFD",
"H c #FCFBFC",
"J c #FFFFFD",
/* pixels */
"<<<<<<<<<<<<<<<<<<<<<<<<<<<<<<<<2<<<<<<<<<<<<<<<<<<<<<<<<<<<<<<<",
"<<<<<<<<<<<<<<<<<<1<<<<<<<2<2<<<<<<<<<<<2<<<<<<<<<<1<2<<,<<<,<<<",
"<<<<<,<2<<,<<<<<<<<<<2<<<1<<<<<<<<1<<<<<<<<<<<<<<<<<<,2,<<<,<<,<",
"<<<<<,,<<<<<<<<<2<<<<<<<<<<<<<<<<<<<2<<<<<<<<<2<<<2<<2,8e4<5e5<<",
"<<<<<322<33<<<<<<<<<<<<<<<<<<<<<<<<<<<2<<<<<<<<<<<<<<<2bJb5VJ7<<",
"<<,<7Mw27Vt<<<<<<<<<<<<<<<<<<<<<<<<<<<<<<2<<<<21<<<<<<2gJx0Ad3<<",
"<<<<pJJyVJ7<<<<<<<<<<1<2<<<<<<1<<<<<2<<<<<<<<<<<<<<<488h9+o;Vbb7",
"<<<<wF>-qp653<<<<2<<<<<<<<2<<<<<2<<<<<<<<<<<<<<<<<<3bHJHq$#:VDDt",
"<7phMqO.&JJGs3<<<<<<<<<<<<<<<<<<<<<<<<<<<2<<<<<<<<<<57wtFFzJp543",
"3yHGVD:=9vss71<<<<1<<2<<<<<<<<<<<<<<<<<<<<<<<<<<<<<<<<<tJV7gG8,,",
",<457GJhDD7<<,<<<<<<<<<<<<<<<<<<<<<1<<2<<<<<2<<<<<<<<<<7G82373,2",
"<<,<7JM56vt<,<<<<<<2<<<<<<<<<<<<<<<<<<<<<<<1<<<<<<<<<<<342<,<,<<",
"<,<<5p6<<31<<<<<<<<<<<<<<<<<<<<<<2<<<2<<<<<<<<<<<<<<<<<<,<<<<<<<",
"<<<,<<<<,<<<<<<<<<<<<<<<<<<<<<<<<<<<<<<<<<<<<<<<<<<<<<<<<<<<<<<<",
"<<<<<<<<<<<<<<<<<<<<<<<<<<<<<<<<<<<<<<<<2<<<<<<<<<<<<<<<<<<<<<<<",
"<<<<<<<<<<<<<<<<<<<2<<<<2<<<<<<<<<<<<<<<<<<<2<<<<<<<<<<<<<<<<<<<",
"<<<<<<<<<<<<2<<<1<<<<<<<<<<<<<<<<<<<<<<<<<<<<<<<<<<<<<<<<<<<<<<<",
"<<<<<<2<<<<<<<<<<<<<<<2<<<<<<<<<<<<1<<<<<<<<<<<<<<<<<<<<<<<<<<<<",
"<<<<<<<<<<<<<<<<<<<<<<<<<<<<<<<e7327e3<<1<<<<<<<<<<<<<<<1<<<<<<<",
"<<<<<<<<1<<<<<<<<<<<<<2<<<<<<<5DHe8HV4<<<<<<<2<<<<<<<<<<<<<<<<<1",
"<<<<<<<<<<<2<<<1<<<<<2<<<<<<<<4ZAklH722<<<<<<<<<<<<<<<<<<<<<<<<<",
"<2<<<<2<<<<<<<<<<<<<<<<<<<<258wV-o#0Vbd4<<<<<<<2<<<<<<1<<<<<<<<<",
"<<<<<<<<<<<<<<<<2<<<<<<<<<<7DJFJ;@%qDGD5<<<<<<<<<<<<<<<<<<<<<<<<",
"<<<<<<<<<<<<<2<<<<1<<<<<<<,27e7gJlAAe43<<<<<<<<<<<<<<<<<<<1<<<<<",
"<<<<<<<<<<<<<<<<<<<<<<<<<<<<<,<bJg7VG4,<<<<<<<<<<<2<<<<<<<<<<<<<",
"<<<<<<1<<<<<<<<<<<<22<<<<<<<<<1vM51363<,<<<<<12<2<<<<<<<<<<<<<<<",
"<<<2<<<<<<<<<<<<<<<<<<1<<<<<<<<432,,<<<<<<<<<<<<<<<<<<<<<1<<1<<<",
"<<<<<<<<<<2<<<<<<<<<<<<<<<<<<<<<22<<,<<<<<<<<<<<<<<<<<<1<<<<<<<<",
"<<<<<<<<<<<<<<1<<<<<<<<<<<<<<<<<<<<<<<<<<<2<<<2<<<<<<<<<<<<<<<<<",
"<<<<<<<<<<<<<<<<<<<<<<<<<<<<<<<<<<<<<<<<<<<<2<<<<<1<<<<<<<<1<<<<",
"<<<<<<<<<<1<<<<<<<<<<2<<<<<<<<<<<<<<<<<<<<<<<<<<<<<<2<<<<<<<<<<<",
"<<2<<1<<<<<<<<<<<2<<<<<<<<2<<<<2<<<<<<<<<<<<<<<<<<<<<<<<<<<<<<<<",
"<<<<<<<,<<<<<<<<<<<<<<<<<<<<<<<<<<<<<1<<<<<<<<<<<<<<<<<<<<<<<<<2",
"<<<<<375,277<<<<<<<<<2<<<<<<2<<<<<<<<<<<<<<<<<<<<<<<<<<<<<<<<<<<",
"<<<<<7HV58Hh<<<<<<<<<<<<<<<<<<<<<<<<<<<<<<<<<<<<<<<<<<<<<<<<<1<<",
"<<<<<7JJjDH5<<<<<<<2<<<<<<1<<<<<<<<<<<<<<<<<<<<<<<<<<<<<<<<<<<<<",
"<<<558D=#=jpp82<<<<<<<<<<<<<<2<<<<<<<<<<<<<<<<<2<<<<<<<<<<<<<<<<",
"<<wDJJF&X%DJHb4<2<<<<<<<<<<<<<<<<<<<<<<<<<<<<<<2<<<<<<<<<2<<<<2<",
"<<5edeVlqzj774<<<<<<<1<<2<2<<<<12<<<<<<<<<<,<<,2<<<<<<<<<<<<<<<<",
"<,<<<5AJdpJd<<<<<<<<<<<<<<<<<<<<<<<<<<2<<<<<<,22<<<<<<<<<<<<<<<<",
"<<<<,5Vj41781<<<<2<<<2<<<<<<<<<<<<<<<<<<<<<<54,,55<<<<<<<<<<<<<<",
"<<<<<<54<<<<<<<<<<<<<<<<<2<<<<<<<<<1<<<<<<<5GM55MM3<<<<<<<<<<<<<",
"<<<<<<<<<<<<<<<<<<<<<<<<<<<1<<<<<2<<<<<<<,<5JJvMJw<<<<<<<<2<<<1<",
"<<<<<<<<<<<<<<<<<<1<<<<<<<<<<<2<<<<<<<<<<347G:&-jwe5<,<<<<<<<<<2",
"<<<<<<<<<<<<<<2<<<<<<<2<<<<<<<2<<<2<<<<<7MVHA&.+0JJG5<<<<<<<<<<<",
"<<<<<<<<<<<<<<<<<<<2<<<<<<<<<<<<<<<<<<<<5pVbVx>qVyw73<<<2<<<<<<<",
"<<<<<<<<<2<<<<<1<<<<<<<<<2<<<<<<<<<<<<<<2<33VJhhDg1<<<<<<<<<<<<<",
"<<<<<<<<<<<<<<<<<<<<<<<<<<<<<<1<<<<<<<<<<,<3DF82ep1<<<<<<<<<<<2<",
"<<<<<1<<<<<<<<<<<<<<<<<<<<<<<<<<<2<<<<<<<<<<77<<<<<<<<<<<<<<<<<<",
"<<<<<<<<<<<<<<1<<<<<<<<<<<<<<<<<<<<<<<<<<<<<<<<<<,<<<<<<<<<<<<<<",
"<<<<<2<<<<<<<<<<<<<<<<<<<<<<<<<<<2<<<<<<<<<<<<<1<<<<<<<<<<<<<<<<",
"<<<1<<<<<<2<<<<<<<<<<<<<<<<<<<<<<<<<<<<<<<<<<<<<<<<<<<<<<<<<<<<<",
"<<<<1<<<<<<<<<<<<<<<<<<<<<<<<<<<<2<<<<<<<<<<<<2<<<<<<<<<<<<<<<<1",
"<<<<<<<<<<<<<<<<<<<<<<<<<<<<<<<<<<<<<<<<<<<<<<<<<<<<<<<<<<<<<<<<",
"<<<<<<<<<<<<<<<2<<<<<<<<<<<<<<<<<<<<<<<<<<<<<<<<<<<<<<<<<<<<1<<<",
"<<<<<<<<<<<<<<<<<<<<<<<<<<<<<<<<<<<<<<<<<<<<<<<<<<<<<<<<2<<<<<<<",
"<<<<<<<<<<<<<3<<232<<<<<2<<<<2<<1<<<<<<<2<<<<<<<<<<<<<<2<<<<2<<<",
"<<<<<<<<<<<<7b7<5Bt2<<<<<<<<<<<<<<2<<<<2<<<<<<<<<<<<<<<<<<<<<<<<",
"<<<<<<<<<<<<pJH8VJ8,<<<<<<<<<<<<<<<<<<<<<<<<<<<2<<<<<<<<<<<<<<<<",
"<<<<<<<<<<<<eF9>zp55<<<<<<<<<<<<<<<<<<<<<<<<<<<<<<1<<<<<1<<<<<<<",
"<<<<<<<<25udBqO.*HHHy<<<<<<<<<<<<<<<<<<<<<2<<<<<<<<<<<<<<<<<<<<<",
"<<<<<<<,1dGJVl-*>bhh8<<<<<<<2<<<<<2<<<<2<<<<<2<<<<2<2<<<<<<<2<<1",
"<<<<<<<<23558HJbHD711<<1<<<<<<1<<<<<<<<<<<1<<<<<<<<<<<<1<<<2<<<<",
"<<<<<<<<2,,,8JH58Du<<<<<<<2<<<<<<<<<<<<<<<<<<<<<<2<<<<<<<<<<<<<<"
};
