/* XPM */
static char *e30b55314b5e4ee48481482eac98e260Am9SmhiHpl8kRwnx[] = {
/* columns rows colors chars-per-pixel */
"64 64 61 1 ",
"  c #EBC592",
". c #EAC896",
"X c #EBC99A",
"o c #EBCDA2",
"O c #ECD2AB",
"+ c #EDD6B2",
"@ c #EEDABB",
"# c #EFDFC3",
"$ c #EECFD3",
"% c #EDD1D5",
"& c #EED5D9",
"* c #EFD9DC",
"= c #F0DBDE",
"- c #F0E0C6",
"; c #F1E4CC",
": c #F1E5D1",
"> c #F2E9D7",
", c #F4EDDF",
"< c #F1DEE1",
"1 c #F2E2E5",
"2 c #F4EEE2",
"3 c #F3E6E9",
"4 c #F4E8E9",
"5 c #F4E8EB",
"6 c #F5EBEE",
"7 c #F4ECED",
"8 c #F6ECED",
"9 c #F7EEEE",
"0 c #F7EEEF",
"q c #F5F0E4",
"w c #F4F0E5",
"e c #F5F1E6",
"r c #F6F2E8",
"t c #F6F3EC",
"y c #F6F5EC",
"u c #F8F5EF",
"i c #F5EFF0",
"p c #F6EEF0",
"a c #F6F2F3",
"s c #F7F6F1",
"d c #F7F7F2",
"f c #F8F2F2",
"g c #F8F3F4",
"h c #F9F3F4",
"j c #F8F4F4",
"k c #F8F5F6",
"l c #F7F8F5",
"z c #F8F8F6",
"x c #FAF7F8",
"c c #F7F9F8",
"v c #F7FBFB",
"b c #FBF9F8",
"n c #F8FAF9",
"m c #F9FAFA",
"M c #FBFAFB",
"N c #F8FBFC",
"B c #FCFBFC",
"V c #FBFDFC",
"C c #FBFCFE",
"Z c #FCFDFC",
"A c #FDFDFE",
/* pixels */
"$$$$$$$$$$$$$$$$$$$$$$$$$$$$$$$$$$$$$$$$$$$$$$$$$$$$$$$$$$$$$$$$",
"$$$$$$$$$$$$$$$$$$$$$$$$%$$$$$$$$$$$$$$$$$$$$$$$$$$$$$$$$$$$$$$$",
"$$$%$$$$$$$$$$$$$$$$$$$$$$$$$$$$$$$$&$$$$$$$$$$$$$$$$$$$$$$$$$$$",
"$$$$$$$&$&<$$$$$$$$$$$$$$$$$$$$$$$$$$$$$$$$$$$$$$$$$$$$$$$$$$$$$",
"$$$$$$5z7kC3<*$$$$$$$$$$$$$$$$$$$$$$$$$$$$$$$%$$$$$$$$$$$$$$$$$$",
"$$$$$*kCCCCMCa$$$$$$$$$$$$$$$$%$$$$$$$$$$$$%$$$$$$$$$$$$$$$$$$$$",
"$$$$6AMMl2tMC7$$$$$$$$$$$%$$$$$$$$$$$$$$$$$$$$$$$$$$%%%=&$%$$$$$",
"$$$$5MCN:XOsMa<$$$$$$$$$$$$$$$$$$$$$$$$$$$$$$$$$$$$&791Mf==$$$$$",
"$$$$%5MV>o+sACV*$$$$$$$$$$$$$$$$$$$$$$$$$$$$$$$$$$%1CAANMMz1%$$$",
"$$$$$7AAvysMCM7&$$$$$$$$$$$$$$$$$$$$$$$$$$$$$$$$$&fMCNsyzBM1$$$$",
"$$$$$<77MCVAA7%%$$$$$$$$$$$$$$$$$$$&$$$$$$$$$$$$$&MNCl@o;MM3%$$$",
"$$$$$$$%aAtaM1$$$$$$$$$$$$$$$$%14=uh&%$$$$$$$$$$$$*sCsOX-MCA5$$$",
"$$$$$$$$&=%%=$$$$%$$$$$$$$%$$$&kAMNAkk1$$$$$$$$$$$&kAAy2kMNM4%$$",
"$$$$$$$$$$$$$$$$$$$$$$$$$$$$%4sAMMMNAA4%$$$$$$$$$$%7asNACAM<%$$$",
"$$$$$$$$$$$$$$$$$$$$$$$$$$$$%kABM>O:CV3%$$$$$$$$$$%%$1BVaVz=$$$$",
"$$$$$$$$$$$$$$$$$$$$$$$$$$$$$=fBz@ OdCB7%$$$$$$$$$$$%%1=&==$$$$$",
"$$$$$$$$$$$$$$$$$$$$$$$$$$$$$$fMze;qMMAf&$$$$$$$$$$$$$$$$$$$$$$$",
"$$$$$$$$%$$$$$$$$$$$$$$$$$$$$&9zMVCBAA9&$$$$$$$$$$$$$$$$$$$$$$$$",
"$$$$$$$$$$$$$$$$$$$$$$$$$$$$$$$&1MAkAA1$$$$$$$$$$$$$$$$$$$$$$$$$",
"$$$$$$%$$$$$$$$$$$$$$$$$$$$$$$$$%16=14%$$$$$$$$$$$$$$$$$$$$$$$$$",
"$$$$$$$$$$$$$$$$$$$$$$$%$$$$$$$$$$$$$$$$$$$$$$$$$$$$$$$$$$$$$$$$",
"$$$$$$$$$$$$$$$$$$$$$$$%$$$$$$$$$$$$$$$$$$$$$$$$$$$$$$$$$$$$$$$$",
"$$$$$$$$$$$$$$$$$$$$$$$$$&$$$$$$$$$$$$$$$$$$$$$$$$$$$$$$$$$$$$$$",
"$%&$$$$$$$$$$$$$%$$$$$$%$$$$$$$$$$$$$$$$$$$$$$$$$$$$$$$$$$$$$$$$",
"<ak**%$$$$$$$$$$$$$$$$$$$$$$$$$$$$$$$$$$$$$$$$$$$$$$$%$$$$$$$$$$",
"VCCVM3$$$$$$$$$$$$$$$$$$$$$$$$$$$$$$$$$$$$$$%$$$$$$$$$$$$$$$$$$$",
"MslVM5$$$$$$$$$$$$$$$$$$$&$$$$$$$$$$$$$$$$$$$$$$$$$$$$$$$$$$$$$$",
";o#lM7%$$$$$$$$$$$$$$$$$$$&$$$$$$$$$$$$$$$$$$$$$$$$$$$$$$$$$$$$$",
"@.+kCCf%$$$$$$$$$$$$$$$$$$$$$$$$$$$$$$$$$$$%$$$$$$$$$$$$$$$$$$$$",
"y,yvCVt%$$$$$$$$$$$$$$$$$$$$$$$$$$$$$$$$$$%%$$$$$$$$$$$$$%&$=1%$",
"CCVCC5&$$$$$$$$$$$$$$$$$$$$$$$$$$$$$$$$$$$$$$$$$$$$$$$$%$1MydA71",
"VVsMA1%$$$$$$$$$$$$$$$$$$$$$$$$$$$$$$$$%$$$$$$$$$$$$$$$%*aCCCBBA",
"11%*1&$$$$$$$$$$$$$$$$$$$$$$$$$$$$$$$$$$$$$$$$$$$$$$$$$5VzMz22zC",
"$$$$$$$$$$$$$$$$$$$$$$$$$$$$$$$$$$$$$$$$$$$$$$$$$$$$$$$<bAM>XoeC",
"$$$$$$$$$$$$$$$$$$$$$$$$$$$$$$$$$$$$$$$$$$&$$$$$$$$$$$$$<BA2O+yM",
"$$$$$$$$$$$$$$$$$$$$*<&17%$$$$$$$$$$$$$$$$$$$$$$$$$$$$$$5AAMsdvV",
"$$$$$$$$$$$$$$$$$$$$tCxMNka1$$$$$$$$$$$$$$$$$$$$$$$$$&$$&75zCAAA",
"$$$$$$$$$$$$%$$$$$*7MNNMvNAa$$$$$$$$$$$$$$$$$$$$$$$$$$$$$%%5C77M",
"$$$$$$$$$$$$$$$$$%iCCve#:MC7$$$$$$$$$$%%$$$$$$$$$$$$$$$$$$$%*%%&",
"$$$$$$$$$$$$$$$$$$*aCv- otMM7$$$$$$$$%$$$$$$$$$$$$$$$$$$$$$$%$%%",
"$$$$$$$$$$$$$$$$$$$1NNt#;zMAA*$$$$$$$$$$$$$$$$$$$$$$$$$$$$$$$$$$",
"$$$$$$$$$$$$$$$$$$$7CMMMMAAk1%$$%$$$$$$$$$$$$$$$$%$$$$$$$$$$$$$$",
"$$$$$$$$$$$$%$$$$$$%<1MCMMA9$$$$$$$$$$$$&$$$$$$$$$$$$$$$$$$$$$$$",
"$$$$$$$$$$$$$$$$$$$$$$7k14f<$$$$$$$$$$$$&$$$$$$$$$$$$$$$$$$$$$$$",
"$$$$$$$$$$$$$$$$$$$$$$$%$$$$$$$$$$$$$$$$$$$$$$$$$$$$$$$$$$$$$$$$",
"$$$&*$$$$$$$$$$$$$$$$$$$$$$$$$$$$$$$$$$$$$$$$$$$$$$$$$$$$$$$$$$$",
"371az3=%$$$$$$$$$$$$$$$$$$$$$$$$$$$$$$$$$$$$$$$$$$$$$$$$$$$$$$$%",
"MAMAAbA7$$$$$$$$$$$$$$$$$$$$$$$$$$$$$$$$$$$$$$$$==$$$$$$$$$$$$$$",
"CClsvNA7%$$$$$$$$$$$$$$$$$$$$$$$$$$$$%$$$$$$%ff5bz<<%$$$$$$$$$$$",
"MM>o+sB7=$$$$$$$$$$$$$$$$$$$$$$$$$$$$$$$$$$%1CANMMAA>$$$$$$$$$$$",
"CC:XOyAAk*$$$$$$$$$$$$$$$$$$$$%$$$$$$$$$$$&kAMMsqkAM=%$$$$$$$$$$",
"CCl,eVAAk&$$$$$$$$$$$$$$$$$$$$$$$$$$$$$$$$&fCMk@X#BM5%$$$$$$$$$$",
"kdVCCCA9&$$$$$$$$$$$$$$$$$$$$$$$$$$$$$$$$$$%pAm@X-MCCa$$$$$$$$$%",
"%&kCkzA4$$$$$$$$$$$$$$$$$$$%$$$$$$$$$$$$$$$&xAmxylVCz4$$$$$$$$$$",
"%$*1&&=%$$$$$$$$$$$$$$$$%$$$$$$$$$$$$$$$$$$$3phACCAA1$$$$$$$$$$$",
"$$$$$$%$$$$$$$$$$$$$$$$$$$$$$$$$$$$$$$$$$$$$$$<xM7Mz=%$$$$$$$$$$",
"$$$$$$$$$$$$$$$$$$$$$$$$$$$$$$$$$$$$$$$$$$$$$$$<<$&<$$$$$$$$$$$$",
"$$$$$$$$$$$$$$$$$$$$$$$$$$$$$$$$$$$$$$$$$$$$$$$$$$$$$$$$$$$$$$$$",
"$$$$$$$$$$$$$$$$$$$$$%$$$$$$$$$$$$$$$$$$$$$$$$$$$$$$$$$$$$$$$$$$",
"$$$$$$$$$$$$$$$$$$$$$$$$$$$$$$$$$$$$$$$$$$$$$$$$$$$$$$$$%$$$$$%$",
"$$$$$$$$$$$$$$$$$$$$$$$$$$$$$$$$$$$$$%$$$$$$$$$$$$$$$$$$$$$$$$$$",
"%$$$$$$$$$$$$$$$$$$$$$%&$==$$%$$$$$$$$$$$$$$$$$$$$$$$$$$$$$$$$$$",
"$$$%$$$$$$$$$$$$$$$$$$1k5sB11%$$$$$$$$$$$$$$$$$$$$$$$%$$$$$$$$$$",
"$$$$$$$$$$$$$$$$$$$$$%sAABABAf$$$$$$$$%$$$$$$$$$$$$$$$$$$$%$$$$$"
};
